<?xml version="1.0" encoding="UTF-8"?>
<svg id="Layer_1" data-name="Layer 1" xmlns="http://www.w3.org/2000/svg" viewBox="0 0 566.93 566.93">
  <defs>
    <style>
      .cls-1 {
        fill: #f397bf;
      }
    </style>
  </defs>
  <path class="cls-1" d="M142.49,424.62H.95c0,78.17,63.37,141.54,141.54,141.54h141.54c0-78.17-63.37-141.54-141.54-141.54Z"/>
  <path class="cls-1" d="M567.11,283.08c0-78.17-63.37-141.54-141.54-141.54h-141.54c0,78.17,63.37,141.54,141.54,141.54-78.17,0-141.54,63.37-141.54,141.54h141.54c-78.17,0-141.54,63.37-141.54,141.54h141.54c78.17,0,141.54-63.37,141.54-141.54h-141.53c78.17,0,141.53-63.37,141.53-141.54Z"/>
  <path class="cls-1" d="M425.57,141.54h141.54C567.11,63.37,503.74,0,425.57,0h-141.54c0,78.17,63.37,141.54,141.54,141.54Z"/>
  <path class="cls-1" d="M284.03,0h-141.54C64.32,0,.95,63.37.95,141.54h141.54C220.66,141.54,284.03,78.17,284.03,0Z"/>
  <path class="cls-1" d="M142.49,283.08c78.17,0,141.54-63.37,141.54-141.54h-141.54C64.32,141.54.95,204.91.95,283.08s63.37,141.54,141.54,141.54h141.54c0-78.17-63.37-141.54-141.54-141.54Z"/>
</svg>