<?xml version="1.0" encoding="UTF-8"?>
<svg id="Layer_1" data-name="Layer 1" xmlns="http://www.w3.org/2000/svg" viewBox="0 0 566.93 566.93">
  <defs>
    <style>
      .cls-1 {
        fill: #f1614c;
      }
    </style>
  </defs>
  <path class="cls-1" d="M425.14,283.6c78.28,0,141.73-63.47,141.73-141.76S503.42.08,425.14.08H141.68C63.41.08-.05,63.55-.05,141.84s63.46,141.76,141.73,141.76c-78.28,0-141.73,63.47-141.73,141.76h0c0,78.29,63.46,141.76,141.73,141.76h283.46c78.28,0,141.73-63.47,141.73-141.76s-63.46-141.76-141.73-141.76ZM283.41.08c0,78.29,63.46,141.76,141.73,141.76-78.28,0-141.73,63.47-141.73,141.76,0-78.29-63.46-141.76-141.73-141.76,78.28,0,141.73-63.47,141.73-141.76ZM283.41,567.11c0-78.29-63.46-141.76-141.73-141.76,78.28,0,141.73-63.47,141.73-141.76,0,78.29,63.46,141.76,141.73,141.76-78.28,0-141.73,63.47-141.73,141.76Z"/>
</svg>