<?xml version="1.0" encoding="UTF-8"?>
<svg id="Layer_1" data-name="Layer 1" xmlns="http://www.w3.org/2000/svg" viewBox="0 0 566.93 566.93">
  <defs>
    <style>
      .cls-1 {
        fill: #fde753;
      }
    </style>
  </defs>
  <path class="cls-1" d="M283.16,283.23c0,78.22,63.41,141.62,141.62,141.62V141.6c-78.22,0-141.62,63.41-141.62,141.63Z"/>
  <path class="cls-1" d="M566.41,283.23l.32-141.29h0C566.73,63.72,503.32.31,425.11.31V-.02C346.89-.02,283.49,63.39,283.49,141.6h141.3c0,78.22,63.41,141.63,141.62,141.63Z"/>
  <path class="cls-1" d="M566.41,283.56c-78.11,0-141.44,63.23-141.62,141.29h-141.3c0,78.22,63.41,141.62,141.62,141.62s141.62-63.41,141.62-141.62h-.32v-141.29Z"/>
  <path class="cls-1" d="M141.86,424.85h0c78.07-.18,141.3-63.51,141.3-141.62s-62.73-140.94-140.37-141.61v-.02h140.69C283.49,63.39,220.08-.02,141.86-.02v.34C64.19.82.42,63.85.24,141.6H.24v141.63c75.03,0,136.42-58.35,141.3-132.15v264.63C136.66,341.91,75.27,283.56.24,283.56v141.63-.29c.17,77.76,63.94,141.07,141.62,141.57h0c.15.01.31,0,.46,0,.15,0,.31,0,.46,0h0c77.79-.51,140.69-63.72,140.69-141.62h-141.62Z"/>
</svg>