<?xml version="1.0" encoding="UTF-8"?>
<svg id="Layer_1" data-name="Layer 1" xmlns="http://www.w3.org/2000/svg" viewBox="0 0 566.93 566.93">
  <defs>
    <style>
      .cls-1 {
        fill: #77cedc;
      }
    </style>
  </defs>
  <path class="cls-1" d="M283.05,141.23c78.42,0,141.99-63.38,141.99-141.56H141.05c0,78.18,63.57,141.56,141.99,141.56Z"/>
  <path class="cls-1" d="M141.05-.34C62.63-.34-.94,63.04-.94,141.23s63.57,141.56,141.99,141.56V-.34Z"/>
  <path class="cls-1" d="M425.04,282.79c78.42,0,141.99-63.38,141.99-141.56S503.46-.34,425.04-.34v283.13Z"/>
  <ellipse class="cls-1" cx="283.05" cy="282.79" rx="141.99" ry="141.56"/>
  <path class="cls-1" d="M283.05,424.35c-78.42,0-141.99,63.38-141.99,141.56h283.99c0-78.18-63.57-141.56-141.99-141.56Z"/>
  <path class="cls-1" d="M141.05,282.79C62.63,282.79-.94,346.17-.94,424.35s63.57,141.56,141.99,141.56v-283.13Z"/>
  <path class="cls-1" d="M425.04,282.79v283.13c78.42,0,141.99-63.38,141.99-141.56s-63.57-141.56-141.99-141.56Z"/>
</svg>