<?xml version="1.0" encoding="UTF-8"?>
<svg id="Layer_1" data-name="Layer 1" xmlns="http://www.w3.org/2000/svg" viewBox="0 0 200 200">
  <defs>
    <style>
      .cls-1 {
        fill: #231f20;
      }
    </style>
  </defs>
  <path class="cls-1" d="M99.89,100c0,27.61,22.39,50,50,50V50c-27.61,0-50,22.39-50,50Z"/>
  <path class="cls-1" d="M200,100v-49.88h0C200,22.5,177.61,0,150,0h0c-27.61,0-50,22.39-50,50h49.89c0,27.61,22.5,50,50.11,50Z"/>
  <path class="cls-1" d="M200,100c-27.57,0-50.05,22.44-50.11,50h-49.89c0,27.61,22.39,50,50,50s50-22.39,50-50h-.11l.11-50Z"/>
  <path class="cls-1" d="M50,150h0c27.56-.06,49.89-22.42,49.89-50s-22.15-49.76-49.56-49.99h0s49.67,0,49.67,0C100,22.39,77.62,0,50,0h0C22.58.18.07,22.55,0,50H0v50c26.49,0,48.16-20.6,49.89-46.65v93.43C48.17,120.72,26.49,100,0,100v50.12-.1c.06,27.45,22.58,49.8,50,49.98h0c.05,0,.11,0,.16,0,.05,0,.11,0,.16,0h0c27.46-.18,49.67-22.5,49.67-50h-50Z"/>
</svg>