<?xml version="1.0" encoding="UTF-8"?>
<svg id="Layer_1" data-name="Layer 1" xmlns="http://www.w3.org/2000/svg" viewBox="0 0 200 200">
  <defs>
    <style>
      .cls-1 {
        fill: #231f20;
      }
    </style>
  </defs>
  <path class="cls-1" d="M149.99,50.02C149.99,22.4,127.61.02,100,.02s-49.99,22.38-49.99,49.99h99.99Z"/>
  <path class="cls-1" d="M149.99.02c0,27.61,22.38,49.99,49.99,49.99V.02h-49.99Z"/>
  <path class="cls-1" d="M99.87,100.05c0,25.83,19.52,47.08,44.59,49.78H55.28c25.07-2.7,44.59-23.96,44.59-49.78,0-27.65-22.38-50.07-49.99-50.07v46.61c-1.67-25.32-22.13-45.49-47.54-46.67C28.81,48.63,49.88,26.73,49.88-.1H-.11v50.07s.08,0,.11,0v100.03c26.49,0,48.16-20.63,49.88-46.72v46.84s0,0,0,0c.16,27.52,22.48,49.78,49.99,49.78s49.83-22.26,49.99-49.78c0,0,0,0,0,0V49.97c-27.61,0-49.99,22.42-49.99,50.07Z"/>
  <path class="cls-1" d="M149.99,200h49.99v-49.99c-27.61,0-49.99,22.38-49.99,49.99Z"/>
  <path class="cls-1" d="M0,150.01v49.99h49.99c0-27.61-22.38-49.99-49.99-49.99Z"/>
  <path class="cls-1" d="M149.99,100.01c0,27.61,22.38,49.99,49.99,49.99V50.02c-27.61,0-49.99,22.38-49.99,49.99Z"/>
</svg>