<?xml version="1.0" encoding="UTF-8"?>
<svg id="Layer_1" data-name="Layer 1" xmlns="http://www.w3.org/2000/svg" viewBox="0 0 200 200">
  <defs>
    <style>
      .cls-1 {
        fill: #231f20;
      }
    </style>
  </defs>
  <path class="cls-1" d="M50,49.9c27.61,0,50-22.39,50-50h-50C22.39-.1,0,22.29,0,49.9v50c27.61,0,50-22.39,50-50Z"/>
  <path class="cls-1" d="M100,99.9c27.61,0,50-22.39,50-50,27.61,0,50-22.39,50-50h-50c-27.61,0-50,22.39-50,50-27.61,0-50,22.39-50,50C22.39,99.9,0,122.29,0,149.9v50c27.61,0,50-22.39,50-50,27.61,0,50-22.39,50-50Z"/>
  <path class="cls-1" d="M150,99.9c-27.61,0-50,22.39-50,50-27.61,0-50,22.49-50,50.1h50c27.61,0,50-22.49,50-50.1,27.61,0,50-22.39,50-50v-50c-27.61,0-50,22.39-50,50Z"/>
  <path class="cls-1" d="M150,199.9l50,.1v-50.1c-27.61,0-50,22.39-50,50Z"/>
</svg>