<?xml version="1.0" encoding="UTF-8"?>
<svg id="Layer_1" data-name="Layer 1" xmlns="http://www.w3.org/2000/svg" viewBox="0 0 200 200">
  <defs>
    <style>
      .cls-1 {
        fill: #231f20;
      }
    </style>
  </defs>
  <g>
    <path class="cls-1" d="M150.1,150c-27.63,0-50.03,22.39-50.03,50h50.03c27.63,0,50.03-22.39,50.03-50v-50c-27.63,0-50.03,22.39-50.03,50Z"/>
    <path class="cls-1" d="M150.1-.01h-50.03c0,27.62,22.4,50,50.03,50,0,27.62,22.4,50,50.03,50v-50C200.13,22.37,177.73-.01,150.1-.01Z"/>
    <path class="cls-1" d="M50.03,150C50.03,122.38,27.63,99.99,0,99.99v50C0,177.61,22.4,200,50.03,200h50.03c0-27.62-22.4-50-50.03-50Z"/>
    <path class="cls-1" d="M50.03,49.99C77.66,49.99,100.06,27.6,100.06-.01h-50.03C22.4-.01,0,22.37,0,49.99v50c27.63,0,50.03-22.39,50.03-50Z"/>
  </g>
  <path class="cls-1" d="M99.91,150c27.56,0,49.91-22.39,49.91-50H50c0,27.62,22.34,50,49.91,50Z"/>
  <path class="cls-1" d="M100.09,50c-27.56,0-49.91,22.39-49.91,50h99.81c0-27.62-22.34-50-49.91-50Z"/>
</svg>