<?xml version="1.0" encoding="UTF-8"?>
<svg id="Layer_1" data-name="Layer 1" xmlns="http://www.w3.org/2000/svg" viewBox="0 0 200 200">
  <defs>
    <style>
      .cls-1 {
        fill: #231f20;
      }
    </style>
  </defs>
  <path class="cls-1" d="M49.98,0H0v50c27.6,0,49.98-22.39,49.98-50Z"/>
  <path class="cls-1" d="M99.96,0h-49.98v50c27.6,0,49.98-22.39,49.98-50Z"/>
  <path class="cls-1" d="M149.95,0h-49.98v50c27.6,0,49.98-22.39,49.98-50Z"/>
  <path class="cls-1" d="M199.93,0h-49.98v50c27.6,0,49.98-22.39,49.98-50Z"/>
  <path class="cls-1" d="M0,150v50h49.98C49.98,172.39,27.6,150,0,150Z"/>
  <path class="cls-1" d="M49.98,150v50h49.98c0-27.61-22.38-50-49.98-50Z"/>
  <path class="cls-1" d="M99.96,150v50h49.98c0-27.61-22.38-50-49.98-50Z"/>
  <path class="cls-1" d="M199.93,200c0-27.61-22.38-50-49.98-50v50h49.98Z"/>
  <path class="cls-1" d="M149.99,99.45h-.01v-49.49c-27.26,0-49.42,22.06-49.98,49.49h-.01v-49.49c-27.26,0-49.42,22.06-49.98,49.49h-.01v-49.49C22.73,49.96.57,72.02.01,99.45H0v50.55c27.26,0,49.42-22.06,49.98-49.49h.01v49.49c27.26,0,49.42-22.06,49.98-49.49h.01v49.49c27.26,0,49.42-22.06,49.98-49.49h.01v49.49c27.26,0,49.42-22.06,49.98-49.49h.01v-50.55c-27.26,0-49.42,22.06-49.98,49.49Z"/>
</svg>