<?xml version="1.0" encoding="UTF-8"?>
<svg id="Layer_1" data-name="Layer 1" xmlns="http://www.w3.org/2000/svg" viewBox="0 0 200 200">
  <defs>
    <style>
      .cls-1 {
        fill: #231f20;
      }
    </style>
  </defs>
  <path class="cls-1" d="M100,0v100c27.61,0,50-22.39,50-50S127.61,0,100,0Z"/>
  <path class="cls-1" d="M50,50C50,22.39,27.61,0,0,0v100c27.61,0,50-22.39,50-50Z"/>
  <path class="cls-1" d="M200,50c0-27.61-22.39-50-50-50v100c27.61,0,50-22.39,50-50Z"/>
  <path class="cls-1" d="M0,100v100c27.61,0,50-22.39,50-50S27.61,100,0,100Z"/>
  <path class="cls-1" d="M100,200c27.61,0,50-22.39,50-50s-22.39-50-50-50v100Z"/>
  <path class="cls-1" d="M150,100v100c27.61,0,50-22.38,50-50s-22.38-50-50-50Z"/>
  <path class="cls-1" d="M100,50C100,22.39,77.61,0,50,0v100c27.61,0,50-22.39,50-50Z"/>
  <path class="cls-1" d="M50,100v100c27.61,0,50-22.39,50-50s-22.39-50-50-50Z"/>
</svg>