<?xml version="1.0" encoding="UTF-8"?>
<svg id="Layer_1" data-name="Layer 1" xmlns="http://www.w3.org/2000/svg" viewBox="0 0 200 200">
  <defs>
    <style>
      .cls-1 {
        fill: #231f20;
      }
    </style>
  </defs>
  <path class="cls-1" d="M50,0H0v50C27.61,50,50,27.61,50,0Z"/>
  <path class="cls-1" d="M150,100c0,27.61,22.39,50,50,50V50c-27.61,0-50,22.39-50,50Z"/>
  <path class="cls-1" d="M50,100c0-27.61-22.39-50-50-50v100c27.61,0,50-22.39,50-50Z"/>
  <path class="cls-1" d="M0,150v50h50c0-27.61-22.39-50-50-50Z"/>
  <path class="cls-1" d="M100,0h-50v50C77.61,50,100,27.61,100,0Z"/>
  <path class="cls-1" d="M50,150v50h50c0-27.61-22.39-50-50-50Z"/>
  <path class="cls-1" d="M150,50V0h-50c0,27.61,22.39,50,50,50Z"/>
  <path class="cls-1" d="M50,50v100c27.61,0,50-22.39,50-50s-22.39-50-50-50Z"/>
  <path class="cls-1" d="M100,100c0,27.61,22.39,50,50,50V50c-27.61,0-50,22.39-50,50Z"/>
  <path class="cls-1" d="M100,200h50v-50c-27.61,0-50,22.39-50,50Z"/>
  <path class="cls-1" d="M150,200h50v-50c-27.61,0-50,22.39-50,50Z"/>
  <path class="cls-1" d="M150,0c0,27.61,22.39,50,50,50V0h-50Z"/>
</svg>