<?xml version="1.0" encoding="UTF-8"?>
<svg id="Layer_1" data-name="Layer 1" xmlns="http://www.w3.org/2000/svg" viewBox="0 0 200 200">
  <defs>
    <style>
      .cls-1 {
        fill: #231f20;
      }
    </style>
  </defs>
  <path class="cls-1" d="M200,150v50c-27.61,0-50-22.38-50-50,0,27.62-22.38,50-50,50s-50-22.38-50-50C50,177.62,27.62,200,0,200v-50C0,122.38,22.39,100,50,100s50,22.38,50,50c0-27.61,22.38-50,50-50s50,22.38,50,50Z"/>
  <path class="cls-1" d="M200,0v50c0,27.61-22.39,50-50,50s-50-22.39-50-50c0,27.61-22.39,50-50,50S0,77.61,0,50V0c27.62,0,50,22.38,50,50C50,22.38,72.39,0,100,0s50,22.38,50,50c0-27.61,22.39-50,50-50Z"/>
</svg>