<?xml version="1.0" encoding="UTF-8"?>
<svg id="base" xmlns="http://www.w3.org/2000/svg" xmlns:xlink="http://www.w3.org/1999/xlink" viewBox="0 0 1920 1080">
  <defs>
    <style>
      .cls-1 {
        fill: #fff;
      }

      .cls-2 {
        fill: none;
      }

      .cls-3 {
        clip-path: url(#clippath-1);
      }

      .cls-4 {
        clip-path: url(#clippath);
      }
    </style>
    <clipPath id="clippath">
      <rect class="cls-2" x="105.1" y="392.64" width="1709.79" height="294.72"/>
    </clipPath>
    <clipPath id="clippath-1">
      <rect class="cls-2" x="105.1" y="392.64" width="1709.79" height="294.72"/>
    </clipPath>
  </defs>
  <g class="cls-4">
    <path class="cls-1" d="M246.76,687c-19.43,0-37.88-2.91-55.36-8.74-17.49-5.83-32.41-13.86-44.77-24.11-12.37-10.24-21.19-21.72-26.49-34.44l62.52-29.67c5.64,10.6,14.21,19.17,25.69,25.7,11.48,6.54,24.81,9.8,40,9.8s27.37-2.73,35.5-8.21c8.12-5.47,12.18-12.09,12.18-19.87,0-9.18-5.65-16.16-16.95-20.93-11.31-4.77-27.38-8.92-48.21-12.45-16.61-3.18-32.32-7.95-47.15-14.31-14.84-6.36-26.85-15.1-36.03-26.23-9.19-11.13-13.78-25.16-13.78-42.12,0-15.54,4.68-29.75,14.04-42.65,9.35-12.89,22.78-23.13,40.26-30.73,17.48-7.59,38.06-11.39,61.72-11.39s44.41,4.07,63.31,12.19c18.89,8.13,34.34,19.6,46.36,34.44l-47.15,39.73c-7.77-9.18-16.96-15.98-27.55-20.39-10.59-4.41-22.25-6.63-34.97-6.63-14.13,0-25.26,2.3-33.38,6.89-8.13,4.59-12.19,10.43-12.19,17.48,0,8.13,6.97,15.02,20.93,20.66,13.94,5.66,32.76,10.6,56.43,14.84,22.59,3.89,40.34,9.8,53.25,17.75,12.89,7.94,21.98,17.4,27.28,28.34,5.3,10.95,7.94,23.31,7.94,37.08,0,14.84-4.59,28.97-13.77,42.39-9.19,13.43-22.96,24.37-41.33,32.85-18.37,8.48-41.15,12.71-68.35,12.71"/>
    <path class="cls-1" d="M715.51,681.7v-279.75h67.81l22.78,50.86-21.72-12.71c6.71-13.06,16.95-23.58,30.73-31.53,13.78-7.94,30.38-11.92,49.8-11.92,17.66,0,33.12,3.53,46.36,10.59,13.24,7.07,23.04,17.67,29.4,31.79,8.13-12.36,19.08-22.51,32.85-30.46,13.78-7.94,32.14-11.92,55.1-11.92,20.84,0,38.23,3.63,52.18,10.86,13.95,7.24,24.55,18.37,31.79,33.38,7.24,15.01,10.86,34,10.86,56.95v183.85h-74.17v-172.72c0-15.89-2.91-28.51-8.74-37.88-5.83-9.36-16.16-14.04-30.99-14.04-13.07,0-23.49,3.63-31.26,10.86-7.78,7.24-13.34,16.78-16.69,28.61-3.36,11.84-5.04,24.99-5.04,39.47v145.7h-74.17v-172.72c0-15.89-3.01-28.51-9.01-37.88-6.01-9.36-16.43-14.04-31.26-14.04-13.07,0-23.4,3.63-30.99,10.86-7.6,7.24-13.07,16.78-16.42,28.61-3.36,11.84-5.03,24.99-5.03,39.47v145.7h-74.18Z"/>
    <path class="cls-1" d="M1157.22,681.7v-279.75h67.81l27.55,63.05-26.49-21.73c5.29-7.41,11.92-14.65,19.87-21.72,7.94-7.06,17.92-12.98,29.93-17.75,12-4.77,26.49-7.15,43.44-7.15,33.91,0,59.61,8.93,77.09,26.76,17.49,17.84,26.23,46.36,26.23,85.56v172.72h-74.17v-168.48c0-18.36-3.63-32.32-10.86-41.86-7.24-9.54-18.63-14.3-34.17-14.3-21.55,0-38.94,7.15-52.19,21.45-13.24,14.31-19.87,35.94-19.87,64.9v138.29h-74.17Z"/>
  </g>
  <rect class="cls-1" x="1453.84" y="401.96" width="74.17" height="279.75"/>
  <g class="cls-3">
    <path class="cls-1" d="M1675.03,630.83c19.07,0,34.43-5.29,46.09-15.89,11.66-10.59,17.48-23.48,17.48-38.68v-22.78c-2.83,2.84-6.44,5.13-10.86,6.89-4.42,1.78-10.69,3.01-18.81,3.71-8.13.71-19.25,1.06-33.38,1.06-13.07,0-23.4,2.92-30.99,8.74-7.6,5.83-11.39,13.51-11.39,23.04,0,10.96,3.44,19.34,10.33,25.17,6.89,5.83,17.39,8.74,31.53,8.74M1660.19,687c-19.08,0-36.21-3.18-51.4-9.54-15.19-6.36-27.11-16.07-35.76-29.14-8.66-13.06-12.98-29.31-12.98-48.75,0-21.19,5.38-38.05,16.16-50.6,10.78-12.53,24.64-21.63,41.59-27.29,16.95-5.64,34.61-8.48,52.98-8.48s33.46-1.06,43.18-3.18c9.71-2.13,16.24-5.21,19.6-9.28,3.36-4.06,5.03-8.56,5.03-13.51,0-9.18-4.15-16.51-12.44-21.98-8.31-5.48-21.46-8.21-39.48-8.21-14.83,0-28.34,2.74-40.53,8.21-12.19,5.48-23.05,13.51-32.58,24.11l-42.39-41.86c12.01-15.18,28.43-27.46,49.28-36.82,20.83-9.36,45.03-14.04,72.58-14.04,36.38,0,64.72,8.13,85.04,24.38,20.31,16.25,30.46,39.39,30.46,69.4v145.17c0,6.71.61,14.48,1.86,23.31,1.23,8.83,2.73,16.43,4.5,22.78h-66.76c-2.12-3.88-3.89-8.48-5.29-13.78-1.42-5.29-2.48-10.24-3.18-14.83-6.71,10.25-16.69,18.46-29.93,24.64-13.24,6.17-29.76,9.27-49.54,9.27"/>
  </g>
</svg>