<?xml version="1.0" encoding="UTF-8"?>
<svg id="Layer_6" data-name="Layer 6" xmlns="http://www.w3.org/2000/svg" viewBox="0 0 1920 1080">
  <defs>
    <style>
      .cls-1 {
        fill: #f0614c;
      }
    </style>
  </defs>
  <path class="cls-1" d="M618.43,542.17c39.3,0,71.15-31.86,71.15-71.15s-31.86-71.15-71.15-71.15h-142.3c-39.3,0-71.15,31.86-71.15,71.15s31.86,71.15,71.15,71.15c-39.3,0-71.15,31.86-71.15,71.15h0c0,39.3,31.86,71.15,71.15,71.15h142.3c39.3,0,71.15-31.86,71.15-71.15s-31.86-71.15-71.15-71.15ZM547.28,399.87c0,39.29,31.86,71.15,71.15,71.15-39.29,0-71.15,31.85-71.15,71.15,0-39.29-31.86-71.15-71.15-71.15,39.29,0,71.15-31.85,71.15-71.15ZM547.28,684.47c0-39.29-31.86-71.15-71.15-71.15,39.29,0,71.15-31.85,71.15-71.15,0,39.29,31.86,71.15,71.15,71.15-39.29,0-71.15,31.85-71.15,71.15Z"/>
</svg>