<?xml version="1.0" encoding="UTF-8"?>
<svg id="Layer_4" data-name="Layer 4" xmlns="http://www.w3.org/2000/svg" viewBox="0 0 1920 1080">
  <defs>
    <style>
      .cls-1 {
        fill: #fce653;
      }
    </style>
  </defs>
  <path class="cls-1" d="M544.68,542.17c0,39.73,32.21,71.94,71.94,71.94v-143.87c-39.73,0-71.94,32.21-71.94,71.94Z"/>
  <path class="cls-1" d="M688.55,542.17l.16-71.77h0c0-39.73-32.21-71.94-71.94-71.94v-.17c-39.73,0-71.94,32.21-71.94,71.94h71.77c0,39.73,32.21,71.94,71.94,71.94Z"/>
  <path class="cls-1" d="M688.55,542.34c-39.67,0-71.84,32.12-71.93,71.77h-71.77c0,39.73,32.21,71.94,71.94,71.94s71.94-32.21,71.94-71.94h-.16v-71.77Z"/>
  <path class="cls-1" d="M472.91,614.1h0c39.65-.09,71.77-32.26,71.77-71.94s-31.86-71.59-71.3-71.93h0s71.46,0,71.46,0c0-39.73-32.21-71.94-71.94-71.94v.17c-39.46.25-71.85,32.27-71.94,71.76h0v71.94c38.11,0,69.29-29.64,71.77-67.12v134.41c-2.48-37.48-33.66-67.12-71.77-67.12v71.94-.14c.08,39.49,32.48,71.65,71.94,71.91h0c.08,0,.16,0,.24,0,.08,0,.16,0,.24,0h0c39.51-.26,71.46-32.36,71.46-71.94h-71.94Z"/>
</svg>