<?xml version="1.0" encoding="UTF-8"?>
<svg id="Layer_3" data-name="Layer 3" xmlns="http://www.w3.org/2000/svg" viewBox="0 0 1920 1080">
  <defs>
    <style>
      .cls-1 {
        fill: #f397bf;
      }
    </style>
  </defs>
  <path class="cls-1" d="M474.8,613.4h-71.24c0,39.34,31.89,71.24,71.24,71.24h71.24c0-39.34-31.89-71.24-71.24-71.24Z"/>
  <path class="cls-1" d="M688.51,542.17c0-39.34-31.89-71.24-71.24-71.24h-71.24c0,39.34,31.89,71.24,71.24,71.24-39.34,0-71.24,31.89-71.24,71.24h71.24c-39.34,0-71.24,31.89-71.24,71.24h71.24c39.34,0,71.24-31.89,71.24-71.24h-71.23c39.34,0,71.23-31.89,71.23-71.24Z"/>
  <path class="cls-1" d="M617.28,470.93h71.24c0-39.34-31.89-71.24-71.24-71.24h-71.24c0,39.34,31.89,71.24,71.24,71.24Z"/>
  <path class="cls-1" d="M546.04,399.7h-71.24c-39.34,0-71.24,31.89-71.24,71.24h71.24c39.34,0,71.24-31.89,71.24-71.24Z"/>
  <path class="cls-1" d="M474.8,542.17c39.34,0,71.24-31.89,71.24-71.24h-71.24c-39.34,0-71.24,31.89-71.24,71.24s31.89,71.24,71.24,71.24h71.24c0-39.34-31.89-71.24-71.24-71.24Z"/>
</svg>