<?xml version="1.0" encoding="UTF-8"?>
<svg id="Layer_5" data-name="Layer 5" xmlns="http://www.w3.org/2000/svg" viewBox="0 0 1920 1080">
  <defs>
    <style>
      .cls-1 {
        fill: #76cddb;
      }
    </style>
  </defs>
  <path class="cls-1" d="M543.66,471.46c39.05,0,70.71-31.66,70.71-70.71h-141.42c0,39.05,31.66,70.71,70.71,70.71Z"/>
  <path class="cls-1" d="M472.95,400.75c-39.05,0-70.71,31.66-70.71,70.71s31.66,70.71,70.71,70.71v-141.42Z"/>
  <path class="cls-1" d="M614.37,542.17c39.05,0,70.71-31.66,70.71-70.71s-31.66-70.71-70.71-70.71v141.42Z"/>
  <circle class="cls-1" cx="543.66" cy="542.17" r="70.71"/>
  <path class="cls-1" d="M543.66,612.88c-39.05,0-70.71,31.66-70.71,70.71h141.42c0-39.05-31.66-70.71-70.71-70.71Z"/>
  <path class="cls-1" d="M472.95,542.17c-39.05,0-70.71,31.66-70.71,70.71s31.66,70.71,70.71,70.71v-141.42Z"/>
  <path class="cls-1" d="M614.37,542.17v141.42c39.05,0,70.71-31.66,70.71-70.71s-31.66-70.71-70.71-70.71Z"/>
</svg>