<?xml version="1.0" encoding="UTF-8"?>
<svg id="Layer_1" data-name="Layer 1" xmlns="http://www.w3.org/2000/svg" viewBox="0 0 200 200">
  <defs>
    <style>
      .cls-1 {
        font-family: ReaderPro-Medium, 'Reader Pro';
        font-size: 12px;
        font-variation-settings: 'wght' 500;
        font-weight: 500;
      }

      .cls-1, .cls-2 {
        fill: #231f20;
      }

      .cls-3 {
        letter-spacing: -.03em;
      }
    </style>
  </defs>
  <text class="cls-1" transform="translate(75.48 -41.48)"><tspan x="0" y="0">SNAK</tspan><tspan class="cls-3" x="33.66" y="0">E</tspan><tspan x="40.93" y="0">S</tspan></text>
  <g>
    <path class="cls-2" d="M100,150c0,27.61-22.39,50-50,50S0,177.62,0,150h50C22.38,150,0,127.61,0,100s22.38-50,50-50H0C0,22.38,22.38,0,50,0s50,22.38,50,50-22.39,50-50,50c27.61,0,50,22.39,50,50Z"/>
    <path class="cls-2" d="M150,150h50c0,27.61-22.38,50-50,50s-50-22.38-50-50,22.38-50,50-50c-27.61,0-50-22.38-50-50S122.38,0,150,0s50,22.38,50,50h-50c27.62,0,50,22.38,50,50s-22.38,50-50,50Z"/>
  </g>
</svg>