<?xml version="1.0" encoding="UTF-8"?>
<svg id="Layer_1" data-name="Layer 1" xmlns="http://www.w3.org/2000/svg" viewBox="0 0 200 200">
  <defs>
    <style>
      .cls-1 {
        fill: #231f20;
      }
    </style>
  </defs>
  <path class="cls-1" d="M200,50h0C200,22.39,177.61,0,150,0s-50,22.39-50,50h0c0,27.61,22.38,50,50,50-27.61,0-50,22.39-50,50h0c0,27.61,22.39,50,50,50s50-22.39,50-50h0c0-27.61-22.38-50-50-50,27.61,0,50-22.39,50-50Z"/>
  <path class="cls-1" d="M100,150h0c0-27.61-22.38-50-50-50,27.61,0,50-22.39,50-50h0C100,22.39,77.61,0,50,0S0,22.39,0,50H0c0,27.61,22.38,50,50,50C22.38,100,0,122.39,0,150H0c0,27.61,22.39,50,50,50s50-22.39,50-50h0Z"/>
</svg>