<?xml version="1.0" encoding="UTF-8"?>
<svg id="Layer_1" data-name="Layer 1" xmlns="http://www.w3.org/2000/svg" viewBox="0 0 200 200">
  <defs>
    <style>
      .cls-1 {
        fill: #231f20;
      }
    </style>
  </defs>
  <path class="cls-1" d="M150,50C150,22.39,127.61,0,100,0s-50,22.39-50,50C22.39,50,0,72.39,0,100s22.39,50,50,50c0,27.61,22.39,50,50,50s50-22.39,50-50c27.61,0,50-22.39,50-50s-22.39-50-50-50ZM100,150c0-27.61-22.39-50-50-50,27.61,0,50-22.39,50-50,0,27.61,22.39,50,50,50-27.61,0-50,22.39-50,50Z"/>
  <path class="cls-1" d="M50,0H0v50C27.61,50,50,27.61,50,0Z"/>
  <path class="cls-1" d="M0,150v50h50C50,172.39,27.61,150,0,150Z"/>
  <path class="cls-1" d="M150,200h50v-50c-27.61,0-50,22.39-50,50Z"/>
  <path class="cls-1" d="M150,0c0,27.61,22.39,50,50,50V0h-50Z"/>
</svg>