<?xml version="1.0" encoding="UTF-8"?>
<svg id="Layer_1" data-name="Layer 1" xmlns="http://www.w3.org/2000/svg" viewBox="0 0 200 200">
  <defs>
    <style>
      .cls-1 {
        font-family: ReaderPro-Medium, 'Reader Pro';
        font-size: 12px;
        font-variation-settings: 'wght' 500;
        font-weight: 500;
      }

      .cls-1, .cls-2 {
        fill: #231f20;
      }

      .cls-3 {
        letter-spacing: -.09em;
      }

      .cls-4 {
        letter-spacing: -.1em;
      }

      .cls-5 {
        letter-spacing: -.03em;
      }
    </style>
  </defs>
  <text class="cls-1" transform="translate(49.94 -41.48)"><tspan x="0" y="0">ENDL</tspan><tspan class="cls-5" x="32.33" y="0">E</tspan><tspan x="39.6" y="0">SS </tspan><tspan class="cls-4" x="58.68" y="0">P</tspan><tspan class="cls-3" x="65.87" y="0">A</tspan><tspan x="73.5" y="0">THS</tspan></text>
  <path class="cls-2" d="M100,100.56v-50c-27.61,0-50,22.39-50,50"/>
  <path class="cls-2" d="M200,100v-50c-27.61,0-50,22.39-50,50"/>
  <path class="cls-2" d="M150,100v-50c-27.61,0-50,22.39-50,50"/>
  <path class="cls-2" d="M50,100v-50C22.39,50,0,72.39,0,100"/>
  <path class="cls-2" d="M0,50h50C50,22.39,27.61,0,0,0"/>
  <path class="cls-2" d="M50,50V0c27.61,0,50,22.39,50,50"/>
  <path class="cls-2" d="M100,50h50C150,22.39,127.61,0,100,0"/>
  <path class="cls-2" d="M150,50V0c27.61,0,50,22.39,50,50"/>
  <path class="cls-2" d="M200,200h-50c0-27.61,22.39-50,50-50"/>
  <path class="cls-2" d="M150,200v-50c-27.61,0-50,22.39-50,50"/>
  <path class="cls-2" d="M100,200h-50c0-27.61,22.39-50,50-50"/>
  <path class="cls-2" d="M50,200v-50c-27.61,0-50,22.39-50,50"/>
  <path class="cls-2" d="M100,150v-50c27.61,0,50,22.39,50,50"/>
  <path class="cls-2" d="M0,150v-50c27.61,0,50,22.39,50,50"/>
  <path class="cls-2" d="M50,150v-50c27.61,0,50,22.39,50,50"/>
  <path class="cls-2" d="M150,149.44v-50c27.61,0,50,22.39,50,50"/>
</svg>