<?xml version="1.0" encoding="UTF-8"?>
<svg id="Layer_1" data-name="Layer 1" xmlns="http://www.w3.org/2000/svg" viewBox="0 0 200 200">
  <defs>
    <style>
      .cls-1 {
        fill: #231f20;
      }
    </style>
  </defs>
  <path class="cls-1" d="M150,150c-27.61,0-50,22.39-50,50h100c0-27.61-22.39-50-50-50Z"/>
  <path class="cls-1" d="M50,150C22.39,150,0,172.39,0,200h100c0-27.61-22.39-50-50-50Z"/>
  <path class="cls-1" d="M150,50c27.61,0,50-22.39,50-50h-100c0,27.61,22.39,50,50,50Z"/>
  <path class="cls-1" d="M100,0H0C0,27.61,22.39,50,50,50S100,27.61,100,0Z"/>
  <path class="cls-1" d="M100,100c0,27.61,22.39,50,50,50s50-22.39,50-50-22.39-50-50-50-50,22.38-50,50c0-27.61-22.39-50-50-50S0,72.39,0,100s22.39,50,50,50,50-22.38,50-50Z"/>
</svg>