<?xml version="1.0" encoding="UTF-8"?>
<svg id="Layer_1" data-name="Layer 1" xmlns="http://www.w3.org/2000/svg" viewBox="0 0 200 200">
  <defs>
    <style>
      .cls-1 {
        fill: #231f20;
      }
    </style>
  </defs>
  <path class="cls-1" d="M49.95,149.99c0-27.62-22.39-50.01-50.02-50.01v50.01c0,27.62,22.39,50.01,50.02,50.01h50.02c0-27.62-22.39-50.01-50.02-50.01Z"/>
  <path class="cls-1" d="M149.98,149.99c0-27.62-22.39-50.01-50.02-50.01,0-27.62-22.39-50.01-50.02-50.01C49.95,22.35,27.56-.04-.07-.04v50.01c0,27.62,22.39,50.01,50.02,50.01,0,27.62,22.39,50.01,50.02,50.01,0,27.62,22.39,50.01,50.02,50.01h50.02c0-27.62-22.39-50.01-50.02-50.01Z"/>
  <path class="cls-1" d="M149.98,49.98C149.98,22.36,127.59-.03,99.97-.03h-50.02c0,27.62,22.39,50.01,50.02,50.01,0,27.62,22.39,50.01,50.02,50.01,0,27.62,22.39,50.01,50.02,50.01v-50.01c0-27.62-22.39-50.01-50.02-50.01Z"/>
  <path class="cls-1" d="M149.98,0c0,27.62,22.39,50.01,50.02,50.01V0h-50.02Z"/>
</svg>