<?xml version="1.0" encoding="UTF-8"?>
<svg id="Layer_1" data-name="Layer 1" xmlns="http://www.w3.org/2000/svg" viewBox="0 0 200 200">
  <defs>
    <style>
      .cls-1 {
        fill: #231f20;
      }
    </style>
  </defs>
  <path class="cls-1" d="M200,100.15c0-26.98-21.27-48.98-47.93-50.1h47.93c0-27.64-22.45-50.05-50.15-50.05v50.05h.1v47.97c-1.1-26.4-22.56-47.51-49.06-48,27.15-.63,48.96-22.78,48.96-50.02H49.55s0,.01,0,.02C22.13.34,0,22.61,0,50.05h47.88C21.22,51.17-.05,73.17-.05,100.15c0,25.41,18.86,46.39,43.32,49.69H0C0,177.54,22.46,200,50.16,200h0s50.14,0,50.14,0h50.15s0-.01,0-.02c27.42-.32,49.55-22.64,49.55-50.15h-43.32c24.46-3.3,43.32-24.28,43.32-49.69ZM50.15,50.05V7.74c3.68,23.68,23.99,41.85,48.64,42.29-26.37.63-47.69,21.68-48.79,47.99v-47.97h.15ZM50.16,199.65v-49.82h-.16v-47.56c1.05,25.16,20.6,45.52,45.38,47.8-25.27,2.46-45.04,23.69-45.22,49.58ZM149.85,149.83v42.41c-3.5-22.53-21.99-40.1-44.96-42.19,24.63-2.42,44.01-22.72,45.05-47.78v47.56h-.1Z"/>
</svg>