<?xml version="1.0" encoding="UTF-8"?>
<svg id="Layer_1" data-name="Layer 1" xmlns="http://www.w3.org/2000/svg" viewBox="0 0 200 200">
  <defs>
    <style>
      .cls-1 {
        fill: #231f20;
      }
    </style>
  </defs>
  <path class="cls-1" d="M200,50v50c-27.61,0-50-22.38-50-50,0,27.61-22.38,50-50,50s-50-22.38-50-50C50,77.62,27.61,100,0,100v-50C0,22.38,22.38,0,50,0s50,22.38,50,50C100,22.38,122.38,0,150,0s50,22.38,50,50Z"/>
  <path class="cls-1" d="M200,150v50c-13.81,0-26.31-5.6-35.36-14.64-9.05-9.05-14.64-21.55-14.64-35.35,0,27.61-22.38,50-50,50s-50-22.38-50-50C50,177.62,27.61,200,0,200v-50C0,122.39,22.38,100,50,100s50,22.39,50,50c0-27.61,22.38-50,50-50s50,22.39,50,50Z"/>
</svg>