<?xml version="1.0" encoding="UTF-8"?>
<svg id="Layer_1" data-name="Layer 1" xmlns="http://www.w3.org/2000/svg" viewBox="0 0 200 200">
  <defs>
    <style>
      .cls-1 {
        fill: #231f20;
      }
    </style>
  </defs>
  <path class="cls-1" d="M100,150.02c27.61,0,50-22.38,50-49.99s-22.38-49.98-50-49.98h0c27.55-.08,50-22.49,50-50.05l-49.87.06v-.06h-50C22.53.09.17,22.38.02,49.81H0v50.19h50c0-25.86-19.65-47.35-44.84-49.93h45.15v-.09c25.78-.09,46.96-19.67,49.56-44.78v44.84c-27.55.07-49.86,22.43-49.86,49.99s22.36,49.95,49.94,49.99c-27.59.03-49.94,22.4-49.94,49.98h50v-49.98s0,0,0,0Z"/>
  <path class="cls-1" d="M150,0v50.26h0c.01,26.16,20.13,47.61,45.74,49.78h-45.74c0,27.61,22.39,49.98,50,49.98V50.23h0c-.01-27.71-22.39-50.23-50-50.23Z"/>
  <path class="cls-1" d="M50,150.02C49.86,122.53,27.53,100,0,100v50.27h0c.14,27.49,22.47,49.73,50,49.73v-49.98h0Z"/>
  <path class="cls-1" d="M149.87,150.02c-27.57.14-49.87,22.46-49.87,49.98h50.13c27.57-.14,49.87-22.47,49.87-49.98h-50.13Z"/>
</svg>