<?xml version="1.0" encoding="UTF-8"?>
<svg id="Layer_1" data-name="Layer 1" xmlns="http://www.w3.org/2000/svg" viewBox="0 0 200 200">
  <defs>
    <style>
      .cls-1 {
        fill: #231f20;
      }
    </style>
  </defs>
  <path class="cls-1" d="M200,50c0-27.61-22.39-50-50-50v100c27.61,0,50-22.39,50-50Z"/>
  <path class="cls-1" d="M100,150c-27.61,0-50,22.39-50,50h100c0-27.61-22.39-50-50-50Z"/>
  <path class="cls-1" d="M150,100c0-27.61-22.39-50-50-50,27.61,0,50-22.39,50-50H50C22.39,0,0,22.39,0,50s22.39,50,50,50C22.39,100,0,122.39,0,150s22.39,50,50,50v-100c0,27.61,22.39,50,50,50s50-22.39,50-50v100c27.61,0,50-22.39,50-50s-22.39-50-50-50ZM50,100V0c0,27.61,22.39,50,50,50-27.61,0-50,22.38-50,50Z"/>
</svg>