<?xml version="1.0" encoding="UTF-8"?>
<svg id="Layer_1" data-name="Layer 1" xmlns="http://www.w3.org/2000/svg" viewBox="0 0 200 200">
  <defs>
    <style>
      .cls-1 {
        fill: #231f20;
      }
    </style>
  </defs>
  <path class="cls-1" d="M149.97,100h50.03c0,27.61-22.4,50-50.04,50s-50.03-22.39-50.03-50h50.03c-27.63,0-50.03-22.38-50.03-50h100.07c0,27.61-22.4,50-50.03,50Z"/>
  <path class="cls-1" d="M149.97,50c27.63,0,50.03-22.39,50.03-50h-100.07c0,27.61,22.4,50,50.03,50Z"/>
  <path class="cls-1" d="M200,150c0,27.61-22.4,50-50.04,50s-50.03-22.38-50.03-50h100.07Z"/>
  <path class="cls-1" d="M99.93,50H-.13c0,27.61,22.4,50,50.03,50s50.03-22.39,50.03-50Z"/>
  <path class="cls-1" d="M99.93,0H-.13C-.13,27.61,22.27,50,49.9,50S99.93,27.61,99.93,0Z"/>
  <path class="cls-1" d="M99.93,100H-.13c0,27.61,22.4,50,50.03,50s50.03-22.39,50.03-50Z"/>
  <path class="cls-1" d="M-.13,150c0,27.61,22.4,50,50.03,50s50.03-22.39,50.03-50H-.13Z"/>
</svg>