<?xml version="1.0" encoding="UTF-8"?>
<svg id="Layer_1" data-name="Layer 1" xmlns="http://www.w3.org/2000/svg" viewBox="0 0 200 200">
  <defs>
    <style>
      .cls-1 {
        fill: #231f20;
      }
    </style>
  </defs>
  <path class="cls-1" d="M150,99.96c-.02-27.6-22.4-49.97-50-49.97h0c-27.6,0-49.98,22.37-50,49.97C49.98,72.37,27.6,50,0,50v100c27.6,0,49.98-22.37,50-49.96.02,27.6,22.4,49.97,50,49.97h0c27.6,0,49.98-22.37,50-49.97.02,27.6,22.4,49.97,50,49.97V50c-27.6,0-49.98,22.37-50,49.96Z"/>
  <path class="cls-1" d="M150,50c27.61,0,50-22.39,50-50h-100c0,27.61,22.39,50,50,50Z"/>
  <path class="cls-1" d="M50,50c27.61,0,50-22.39,50-50H0C0,27.61,22.39,50,50,50Z"/>
  <path class="cls-1" d="M150,150c-27.61,0-50,22.39-50,50h100c0-27.61-22.39-50-50-50Z"/>
  <path class="cls-1" d="M50,150C22.39,150,0,172.39,0,200h100c0-27.61-22.39-50-50-50Z"/>
</svg>