<?xml version="1.0" encoding="UTF-8"?>
<svg id="Layer_1" data-name="Layer 1" xmlns="http://www.w3.org/2000/svg" viewBox="0 0 200 200">
  <defs>
    <style>
      .cls-1 {
        fill: #231f20;
      }
    </style>
  </defs>
  <path class="cls-1" d="M0,50c27.61,0,50-22.39,50-50H0v50Z"/>
  <path class="cls-1" d="M100,0h-50v50c27.61,0,50-22.39,50-50Z"/>
  <path class="cls-1" d="M0,200c27.61,0,50-22.39,50-50H0v50Z"/>
  <path class="cls-1" d="M50,150v50h50c0-27.61-22.39-50-50-50Z"/>
  <path class="cls-1" d="M200,200v-50h-50c0,27.61,22.39,50,50,50Z"/>
  <path class="cls-1" d="M100,200h50v-50c-27.61,0-50,22.39-50,50Z"/>
  <path class="cls-1" d="M200,50V0h-50c0,27.61,22.39,50,50,50Z"/>
  <path class="cls-1" d="M100,0c0,27.61,22.39,50,50,50V0h-50Z"/>
  <path class="cls-1" d="M150,100v50c27.61,0,50-22.39,50-50s-22.39-50-50-50v50h0Z"/>
  <path class="cls-1" d="M50,100v-50C22.39,50,0,72.39,0,100s22.39,50,50,50v-50h0Z"/>
  <path class="cls-1" d="M100,100v50c27.61,0,50-22.39,50-50s-22.39-50-50-50v50h0Z"/>
  <path class="cls-1" d="M100,100v-50c-27.61,0-50,22.39-50,50s22.39,50,50,50v-50h0Z"/>
</svg>