<?xml version="1.0" encoding="UTF-8"?>
<svg id="Layer_1" data-name="Layer 1" xmlns="http://www.w3.org/2000/svg" viewBox="0 0 200 200">
  <defs>
    <style>
      .cls-1 {
        fill: #231f20;
      }
    </style>
  </defs>
  <path class="cls-1" d="M49.99,0H0v49.91c27.62,0,50-22.34,50-49.91Z"/>
  <path class="cls-1" d="M150,99.81c0,27.56-22.38,49.91-50,49.91s-50-22.35-50-49.91,22.38-49.9,50-49.91C72.38,49.9,49.99,27.56,49.99,0h100c0,27.56-22.38,49.9-50,49.9,27.61,0,50,22.35,50,49.91Z"/>
  <path class="cls-1" d="M150,0c0,27.56,22.39,49.91,50,49.91V0h-50Z"/>
  <path class="cls-1" d="M150,199.62h50v-49.91c-27.62,0-50,22.34-50,49.91Z"/>
  <path class="cls-1" d="M100,149.72c-27.62,0-50,22.34-50,49.91h100c0-27.56-22.39-49.91-50-49.91Z"/>
  <path class="cls-1" d="M0,149.72v49.91h50c0-27.56-22.39-49.91-50-49.91Z"/>
  <path class="cls-1" d="M49.99,99.81C49.99,72.25,27.61,49.91,0,49.91v99.81c27.62,0,50-22.34,50-49.91Z"/>
  <path class="cls-1" d="M150,99.81c0,27.56,22.39,49.91,50,49.91V49.91c-27.62,0-50,22.34-50,49.91Z"/>
</svg>