<?xml version="1.0" encoding="UTF-8"?>
<svg id="Layer_1" data-name="Layer 1" xmlns="http://www.w3.org/2000/svg" viewBox="0 0 200 200">
  <defs>
    <style>
      .cls-1 {
        fill: #231f20;
      }
    </style>
  </defs>
  <path class="cls-1" d="M50,50C77.61,50,100,27.62,100,0c0,27.61,22.39,50,50,50,0,27.61,22.39,50,50,50v-50C200,22.39,177.61,0,150,0H50C22.39,0,0,22.39,0,50v50c27.61,0,50-22.39,50-50Z"/>
  <path class="cls-1" d="M150,100c0-27.61-22.39-50-50-50s-50,22.39-50,50C22.39,100,0,122.39,0,150H0v50c27.61,0,50-22.39,50-50,27.61,0,50-22.39,50-50,0,27.61,22.39,50,50,50,0,27.61,22.39,50,50,50v-50c0-27.61-22.39-50-50-50Z"/>
  <path class="cls-1" d="M100,150c-27.61,0-50,22.39-50,50h100c0-27.61-22.39-50-50-50Z"/>
</svg>