<?xml version="1.0" encoding="UTF-8"?>
<svg id="Layer_1" data-name="Layer 1" xmlns="http://www.w3.org/2000/svg" viewBox="0 0 200 200">
  <defs>
    <style>
      .cls-1 {
        fill: #231f20;
      }
    </style>
  </defs>
  <path class="cls-1" d="M100,50h-50C22.38,50,0,27.61,0,0h50C77.62,0,100,22.38,100,50Z"/>
  <path class="cls-1" d="M100,100c0-27.61-22.39-50-50-50H0c0,27.61,22.39,50,50,50-27.61,0-50,22.39-50,50h50c-27.61,0-50,22.39-50,50h50c27.61,0,50-22.39,50-50h-50c27.61,0,50-22.39,50-50Z"/>
  <path class="cls-1" d="M200,0h-50C122.39,0,100,22.39,100,50h50C177.61,50,200,27.61,200,0Z"/>
  <path class="cls-1" d="M200,50h-50c-27.61,0-50,22.39-50,50s22.39,50,50,50h-50c0,27.61,22.39,50,50,50h50c0-27.61-22.38-50-50-50h50c0-27.61-22.39-50-50-50,27.61,0,50-22.39,50-50Z"/>
</svg>