<?xml version="1.0" encoding="UTF-8"?>
<svg id="Layer_1" data-name="Layer 1" xmlns="http://www.w3.org/2000/svg" viewBox="0 0 200 200">
  <defs>
    <style>
      .cls-1 {
        fill: #231f20;
      }
    </style>
  </defs>
  <path class="cls-1" d="M150,50h50V0c-27.61,0-50,22.39-50,50Z"/>
  <path class="cls-1" d="M150,0c-27.61,0-50,22.39-50,50h50V0Z"/>
  <path class="cls-1" d="M100,0c-27.61,0-50,22.38-50,50V0C22.39,0,0,22.39,0,50h100V0Z"/>
  <path class="cls-1" d="M150,100h50v-50c-27.61,0-50,22.39-50,50Z"/>
  <path class="cls-1" d="M0,100h50v-50C22.39,50,0,72.39,0,100Z"/>
  <path class="cls-1" d="M100,100h50v-50c-27.61,0-50,22.39-50,50Z"/>
  <path class="cls-1" d="M100,50c-27.61,0-50,22.39-50,50h50v-50Z"/>
  <path class="cls-1" d="M150,150h50v-50c-27.61,0-50,22.39-50,50Z"/>
  <path class="cls-1" d="M150,100c-27.61,0-50,22.39-50,50h50v-50Z"/>
  <path class="cls-1" d="M50,150v-50C22.39,100,0,122.39,0,150h100v-50c-27.61,0-50,22.38-50,50Z"/>
  <path class="cls-1" d="M150,200h50v-50c-27.61,0-50,22.39-50,50Z"/>
  <path class="cls-1" d="M0,200h50v-50c-27.61,0-50,22.39-50,50Z"/>
  <path class="cls-1" d="M100,200h50v-50c-27.61,0-50,22.39-50,50Z"/>
  <path class="cls-1" d="M50,200h50v-50c-27.61,0-50,22.39-50,50Z"/>
</svg>