<?xml version="1.0" encoding="UTF-8"?>
<svg id="Layer_1" data-name="Layer 1" xmlns="http://www.w3.org/2000/svg" viewBox="0 0 200 200">
  <defs>
    <style>
      .cls-1 {
        fill: #231f20;
      }
    </style>
  </defs>
  <path class="cls-1" d="M50,150H0C0,177.61,22.39,200,50,200h50c0-27.61-22.39-50-50-50Z"/>
  <path class="cls-1" d="M200,100c0-27.61-22.39-50-50-50h-50c0,27.61,22.39,50,50,50-27.61,0-50,22.39-50,50h50c-27.61,0-50,22.39-50,50h50c27.61,0,50-22.39,50-50h-50c27.61,0,50-22.39,50-50Z"/>
  <path class="cls-1" d="M150,50h50c0-27.61-22.39-50-50-50h-50c0,27.61,22.39,50,50,50Z"/>
  <path class="cls-1" d="M100,0h-50C22.39,0,0,22.39,0,50h50c27.61,0,50-22.39,50-50Z"/>
  <path class="cls-1" d="M50,100c27.61,0,50-22.39,50-50h-50C22.39,50,0,72.39,0,100s22.39,50,50,50h50c0-27.61-22.39-50-50-50Z"/>
</svg>